<svg id="Capa_1" enable-background="new 0 0 512 512" height="512" viewBox="0 0 512 512" width="512" xmlns="http://www.w3.org/2000/svg"><g><path d="m21.125 162.81c2.14 1.09 4.43 1.64 6.81 1.64 5.67 0 10.79-3.14 13.37-8.18 8.91-17.47 22.48-32.11 39.24-42.34 2.24-1.37 4.08-3.3 5.34-5.59 1.21-2.22 1.85-4.73 1.84-7.26 0-2.74-.76-5.43-2.2-7.77-2.74-4.5-7.54-7.19-12.81-7.19-2.75 0-5.45.76-7.81 2.2-21.41 13.09-38.78 31.79-50.21 54.09-.04.07-.08.14-.11.22 0 0-.01 0-.01.01-1.09 2.14-1.64 4.43-1.63 6.81 0 5.67 3.14 10.78 8.18 13.36z"/><path d="m136.185 98.49h66.74c8.27 0 15-6.73 15-15s-6.73-15-15-15h-66.74c-8.27 0-15 6.73-15 15s6.73 15 15 15z"/><path d="m281.005 482h-66.73c-8.27 0-15 6.73-15 15s6.73 15 15 15h66.73c8.27 0 15-6.73 15-15s-6.73-15-15-15z"/><path d="m386.575 416.33c-4.4-1.04-9.14.01-12.69 2.78-2.71 2.12-4.57 5.01-5.36 8.36-2.13 9.03-5.99 17.45-11.45 25.03-5.39 7.46-12.06 13.73-19.84 18.63-4.37 2.76-6.99 7.5-7 12.68-.01 2.829.79 5.6 2.31 8.01 2.76 4.39 7.51 7 12.7 7 2.83 0 5.59-.79 7.99-2.31 11.05-6.96 20.53-15.87 28.17-26.47 7.77-10.77 13.26-22.76 16.31-35.65.27-1.15.41-2.32.41-3.48 0-3.32-1.13-6.59-3.19-9.22-2.11-2.71-5-4.56-8.36-5.36z"/><path d="m360.255 374.41c1.36 2.25 3.29 4.1 5.58 5.37 2.22 1.22 4.74 1.87 7.27 1.87 2.73 0 5.41-.75 7.75-2.17 2.24-1.35 4.1-3.28 5.36-5.56 1.23-2.21 1.88-4.72 1.88-7.25.01-2.73-.74-5.42-2.16-7.77v-.01c-6.77-11.19-15.51-20.84-25.97-28.68-10.62-7.96-22.5-13.66-35.32-16.95-1.23-.32-2.49-.48-3.74-.48-6.85 0-12.82 4.64-14.52 11.27-.32 1.23-.48 2.49-.48 3.75.01 6.84 4.64 12.81 11.28 14.51 8.98 2.3 17.32 6.31 24.79 11.91 7.38 5.53 13.53 12.32 18.28 20.19z"/><path d="m420.899 0c-42.392 0-78.098 29.169-88.107 68.491h-28.068c-.007 0-.013-.001-.019-.001h-35.05c-8.27 0-15 6.73-15 15s6.73 15 15 15h35.031c.007 0 .013.001.019.001h25.837c2.747 20.061 15.998 46.135 40.299 79.354 19.245 26.308 38.205 47.052 39.002 47.922 2.841 3.099 6.853 4.864 11.057 4.864s8.216-1.765 11.057-4.864c.798-.871 19.758-21.615 39.002-47.922 27.485-37.573 40.846-66.011 40.846-86.939 0-50.126-40.78-90.906-90.906-90.906zm-.003 192.959c-27.091-31.785-60.902-79.045-60.902-102.053 0-33.583 27.322-60.906 60.906-60.906s60.906 27.322 60.906 60.906c-.001 22.975-33.818 70.251-60.91 102.053z"/><path d="m420.899 79.121c-8.284 0-15 6.716-15 15v.157c0 8.284 6.716 15 15 15s15-6.716 15-15v-.157c0-8.285-6.715-15-15-15z"/><path d="m223.376 340.09h31.039c8.27 0 15-6.73 15-15s-6.73-15-15-15h-34.477c-12.34-48.067-56.037-83.697-107.899-83.697-26.915 0-51.631 9.598-70.906 25.549-6.133-12.145-9.889-25.396-10.988-39.062-.3-3.78-2.01-7.28-4.8-9.85-3.07-2.82-7.17-4.24-11.35-3.9-3.77.3-7.27 2-9.83 4.78-2.55 2.77-3.96 6.37-3.97 10.12 0 .41.02.83.05 1.25 1.709 21.343 8.46 41.882 19.618 60.036-12.117 17.824-19.207 39.329-19.207 62.459 0 25.685 16.71 61.013 51.085 108.004 20.211 27.629 40.148 50.371 46.875 57.886 2.456 4.935 7.536 8.335 13.423 8.335h35.5c8.284 0 15-6.716 15-15s-6.716-15-15-15h-3.477c8.311-10.037 18.259-22.527 28.276-36.22 33.354-45.596 50.074-80.211 51.038-105.69zm-192.72-2.315c0-44.874 36.508-81.383 81.383-81.383s81.383 36.508 81.383 81.383c0 31.085-46.066 94.875-81.327 135.724-9.094-10.605-22.657-26.998-36.142-45.431-39.412-53.879-45.297-79.698-45.297-90.293z"/><path d="m127.039 342.058v-.2c0-8.284-6.716-15-15-15s-15 6.716-15 15v.2c0 8.284 6.716 15 15 15s15-6.716 15-15z"/></g></svg>